{
    "asset": {
        "version": "2.0",
        "generator": "Open Asset Import Library (assimp v4.1.-1140824877)"
    },
    "accessors": [
        {
            "bufferView": 0,
            "byteOffset": 0,
            "componentType": 5126,
            "count": 163,
            "type": "VEC3",
            "max": [
                7.9491400718688969,
                24.063499450683595,
                15.246999740600586
            ],
            "min": [
                -7.9491400718688969,
                0.0,
                -8.075030326843262
            ]
        },
        {
            "bufferView": 1,
            "byteOffset": 0,
            "componentType": 5126,
            "count": 163,
            "type": "VEC3",
            "max": [
                0.9838046431541443,
                0.986033022403717,
                0.9820557832717896
            ],
            "min": [
                -0.9838046431541443,
                -1.0,
                -0.9989691376686096
            ]
        },
        {
            "bufferView": 2,
            "byteOffset": 0,
            "componentType": 5126,
            "count": 163,
            "type": "VEC2",
            "max": [
                0.9845929741859436,
                1.0
            ],
            "min": [
                0.06970299780368805,
                0.0
            ]
        },
        {
            "bufferView": 3,
            "byteOffset": 0,
            "componentType": 5125,
            "count": 738,
            "type": "SCALAR",
            "max": [
                94.0
            ],
            "min": [
                0.0
            ]
        },
        {
            "bufferView": 4,
            "byteOffset": 0,
            "componentType": 5123,
            "count": 163,
            "type": "VEC4",
            "max": [
                6.0,
                6.0,
                6.0,
                6.0
            ],
            "min": [
                0.0,
                0.0,
                0.0,
                0.0
            ]
        },
        {
            "bufferView": 5,
            "byteOffset": 0,
            "componentType": 5126,
            "count": 163,
            "type": "VEC4",
            "max": [
                1.0,
                1.0,
                1.0,
                1.0
            ],
            "min": [
                0.0,
                0.0,
                0.0,
                0.0
            ]
        },
        {
            "bufferView": 6,
            "byteOffset": 0,
            "componentType": 5126,
            "count": 7,
            "type": "MAT4",
            "max": [
                5.457620143890381,
                1.0,
                1.0,
                5.457620143890381,
                5.457620143890381,
                5.457620143890381,
                5.457620143890381,
                5.457620143890381,
                5.457620143890381,
                5.457620143890381,
                5.457620143890381,
                5.457620143890381,
                5.457620143890381,
                5.457620143890381,
                5.457620143890381,
                5.457620143890381
            ],
            "min": [
                -0.16939100623130799,
                -4.210519790649414,
                -0.9855489730834961,
                -0.16939100623130799,
                -0.16939100623130799,
                -0.16939100623130799,
                -0.16939100623130799,
                -0.16939100623130799,
                -0.16939100623130799,
                -0.16939100623130799,
                -0.16939100623130799,
                -0.16939100623130799,
                -0.16939100623130799,
                -0.16939100623130799,
                -0.16939100623130799,
                -0.16939100623130799
            ]
        },
        {
            "bufferView": 7,
            "byteOffset": 0,
            "componentType": 5126,
            "count": 48,
            "type": "SCALAR",
            "max": [
                43713.0
            ],
            "min": [
                0.0
            ]
        },
        {
            "bufferView": 8,
            "byteOffset": 0,
            "componentType": 5126,
            "count": 48,
            "type": "VEC3",
            "max": [
                -0.6082010269165039,
                1.295549988746643,
                -0.7351019978523254
            ],
            "min": [
                -0.6082010269165039,
                1.295549988746643,
                -0.7351019978523254
            ]
        },
        {
            "bufferView": 9,
            "byteOffset": 0,
            "componentType": 5126,
            "count": 48,
            "type": "SCALAR",
            "max": [
                43713.0
            ],
            "min": [
                0.0
            ]
        },
        {
            "bufferView": 10,
            "byteOffset": 0,
            "componentType": 5126,
            "count": 48,
            "type": "VEC4",
            "max": [
                0.9692920446395874,
                0.9692380428314209,
                0.9693140983581543,
                0.9692920446395874
            ],
            "min": [
                -0.2300625592470169,
                -0.23515595495700837,
                -0.23269034922122956,
                -0.2300625592470169
            ]
        },
        {
            "bufferView": 11,
            "byteOffset": 0,
            "componentType": 5126,
            "count": 48,
            "type": "SCALAR",
            "max": [
                43713.0
            ],
            "min": [
                0.0
            ]
        },
        {
            "bufferView": 12,
            "byteOffset": 0,
            "componentType": 5126,
            "count": 48,
            "type": "VEC3",
            "max": [
                1.0000004768371583,
                1.0000003576278687,
                1.0000005960464478
            ],
            "min": [
                0.9999993443489075,
                0.9999994039535523,
                0.9999995231628418
            ]
        },
        {
            "bufferView": 13,
            "byteOffset": 0,
            "componentType": 5126,
            "count": 48,
            "type": "SCALAR",
            "max": [
                43713.0
            ],
            "min": [
                0.0
            ]
        },
        {
            "bufferView": 14,
            "byteOffset": 0,
            "componentType": 5126,
            "count": 48,
            "type": "VEC3",
            "max": [
                -2.5693399906158449,
                5.6053900718688969,
                0.0
            ],
            "min": [
                -2.5693399906158449,
                5.6053900718688969,
                0.0
            ]
        },
        {
            "bufferView": 15,
            "byteOffset": 0,
            "componentType": 5126,
            "count": 48,
            "type": "SCALAR",
            "max": [
                43713.0
            ],
            "min": [
                0.0
            ]
        },
        {
            "bufferView": 16,
            "byteOffset": 0,
            "componentType": 5126,
            "count": 48,
            "type": "VEC4",
            "max": [
                0.730829656124115,
                0.7297325134277344,
                0.7309638261795044,
                0.730829656124115
            ],
            "min": [
                -0.7045475840568543,
                -0.7045475840568543,
                -0.7045475840568543,
                -0.7045475840568543
            ]
        },
        {
            "bufferView": 17,
            "byteOffset": 0,
            "componentType": 5126,
            "count": 48,
            "type": "SCALAR",
            "max": [
                43713.0
            ],
            "min": [
                0.0
            ]
        },
        {
            "bufferView": 18,
            "byteOffset": 0,
            "componentType": 5126,
            "count": 48,
            "type": "VEC3",
            "max": [
                1.0000004768371583,
                1.0000004768371583,
                1.0000003576278687
            ],
            "min": [
                0.9999995231628418,
                0.999999463558197,
                0.999999463558197
            ]
        }
    ],
    "animations": [
        {
            "channels": [
                {
                    "sampler": 0,
                    "target": {
                        "node": 10,
                        "path": "translation"
                    }
                },
                {
                    "sampler": 1,
                    "target": {
                        "node": 10,
                        "path": "rotation"
                    }
                },
                {
                    "sampler": 2,
                    "target": {
                        "node": 10,
                        "path": "scale"
                    }
                }
            ],
            "samplers": [
                {
                    "input": 7,
                    "path": "LINEAR",
                    "output": 8
                },
                {
                    "input": 9,
                    "path": "LINEAR",
                    "output": 10
                },
                {
                    "input": 11,
                    "path": "LINEAR",
                    "output": 12
                }
            ]
        },
        {
            "channels": [
                {
                    "sampler": 0,
                    "target": {
                        "node": 11,
                        "path": "translation"
                    }
                },
                {
                    "sampler": 1,
                    "target": {
                        "node": 11,
                        "path": "rotation"
                    }
                },
                {
                    "sampler": 2,
                    "target": {
                        "node": 11,
                        "path": "scale"
                    }
                }
            ],
            "samplers": [
                {
                    "input": 13,
                    "path": "LINEAR",
                    "output": 14
                },
                {
                    "input": 15,
                    "path": "LINEAR",
                    "output": 16
                },
                {
                    "input": 17,
                    "path": "LINEAR",
                    "output": 18
                }
            ]
        }
    ],
    "buffers": [
        {
            "byteLength": 18824,
            "uri": "pg_stand.bin"
        }
    ],
    "bufferViews": [
        {
            "buffer": 0,
            "byteOffset": 0,
            "byteLength": 1956,
            "target": 34962
        },
        {
            "buffer": 0,
            "byteOffset": 1956,
            "byteLength": 1956,
            "target": 34962
        },
        {
            "buffer": 0,
            "byteOffset": 3912,
            "byteLength": 1304,
            "target": 34962
        },
        {
            "buffer": 0,
            "byteOffset": 5216,
            "byteLength": 2952,
            "target": 34963
        },
        {
            "buffer": 0,
            "byteOffset": 8168,
            "byteLength": 1304,
            "target": 34962
        },
        {
            "buffer": 0,
            "byteOffset": 10776,
            "byteLength": 2608,
            "target": 34962
        },
        {
            "buffer": 0,
            "byteOffset": 13384,
            "byteLength": 448,
            "target": 34962
        },
        {
            "buffer": 0,
            "byteOffset": 13832,
            "byteLength": 192,
            "target": 34962
        },
        {
            "buffer": 0,
            "byteOffset": 14024,
            "byteLength": 576,
            "target": 34962
        },
        {
            "buffer": 0,
            "byteOffset": 14600,
            "byteLength": 192,
            "target": 34962
        },
        {
            "buffer": 0,
            "byteOffset": 14792,
            "byteLength": 768,
            "target": 34962
        },
        {
            "buffer": 0,
            "byteOffset": 15560,
            "byteLength": 192,
            "target": 34962
        },
        {
            "buffer": 0,
            "byteOffset": 15752,
            "byteLength": 576,
            "target": 34962
        },
        {
            "buffer": 0,
            "byteOffset": 16328,
            "byteLength": 192,
            "target": 34962
        },
        {
            "buffer": 0,
            "byteOffset": 16520,
            "byteLength": 576,
            "target": 34962
        },
        {
            "buffer": 0,
            "byteOffset": 17096,
            "byteLength": 192,
            "target": 34962
        },
        {
            "buffer": 0,
            "byteOffset": 17288,
            "byteLength": 768,
            "target": 34962
        },
        {
            "buffer": 0,
            "byteOffset": 18056,
            "byteLength": 192,
            "target": 34962
        },
        {
            "buffer": 0,
            "byteOffset": 18248,
            "byteLength": 576,
            "target": 34962
        }
    ],
    "images": [
        {
            "uri": "./pg.png"
        }
    ],
    "materials": [
        {
            "name": "lambert1",
            "pbrMetallicRoughness": {
                "baseColorTexture": {
                    "index": 0
                },
                "metallicFactor": 0.0,
                "roughnessFactor": 0.9599999785423279
            }
        }
    ],
    "meshes": [
        {
            "primitives": [
                {
                    "mode": 4,
                    "material": 0,
                    "indices": 3,
                    "attributes": {
                        "POSITION": 0,
                        "NORMAL": 1,
                        "TEXCOORD_0": 2,
                        "JOINTS_0": 4,
                        "WEIGHTS_0": 5
                    }
                }
            ]
        }
    ],
    "nodes": [
        {
            "name": "VisualSceneNode",
            "matrix": [
                0.009999999776482582,
                0.0,
                0.0,
                0.0,
                0.0,
                0.009999999776482582,
                0.0,
                0.0,
                0.0,
                0.0,
                0.009999999776482582,
                0.0,
                0.0,
                0.0,
                0.0,
                1.0
            ],
            "children": [
                1,
                2,
                3,
                4,
                5,
                6
            ]
        },
        {
            "name": "persp",
            "matrix": [
                -0.3518419861793518,
                0.0,
                -0.9360600113868713,
                0.0,
                -0.9125739932060242,
                0.22259800136089326,
                0.3430140018463135,
                0.0,
                0.20836499333381654,
                0.9749100208282471,
                -0.0783189982175827,
                0.0,
                5.6579999923706059,
                37.608001708984378,
                1.7442600727081299,
                1.0
            ]
        },
        {
            "name": "top",
            "matrix": [
                1.0,
                0.0,
                0.0,
                0.0,
                0.0,
                0.0,
                -1.0,
                0.0,
                0.0,
                1.0,
                0.0,
                0.0,
                0.0,
                102.89900207519531,
                1.2288399934768677,
                1.0
            ]
        },
        {
            "name": "front",
            "matrix": [
                1.0,
                0.0,
                0.0,
                0.0,
                0.0,
                1.0,
                0.0,
                0.0,
                0.0,
                0.0,
                1.0,
                0.0,
                0.0,
                12.031700134277344,
                100.84700012207031,
                1.0
            ]
        },
        {
            "name": "side",
            "matrix": [
                0.0,
                0.0,
                -1.0,
                0.0,
                0.0,
                1.0,
                0.0,
                0.0,
                1.0,
                0.0,
                0.0,
                0.0,
                100.39099884033203,
                12.031700134277344,
                3.585969924926758,
                1.0
            ]
        },
        {
            "name": "neko",
            "mesh": 0,
            "skeletons": [
                0
            ],
            "skin": 0
        },
        {
            "name": "root",
            "matrix": [
                0.0,
                -0.16939100623130799,
                -0.9855489730834961,
                0.0,
                0.0,
                0.9855489730834961,
                -0.16939100623130799,
                0.0,
                1.0,
                0.0,
                0.0,
                0.0,
                0.0,
                5.0741400718688969,
                4.665520191192627,
                1.0
            ],
            "children": [
                7,
                11,
                12,
                13
            ],
            "jointName": "root"
        },
        {
            "name": "ass",
            "matrix": [
                0.4708699882030487,
                -0.5953800082206726,
                0.6510019898414612,
                0.0,
                0.19378499686717988,
                0.7897089719772339,
                0.5820710062980652,
                0.0,
                -0.8606560230255127,
                -0.14792500436306,
                0.4872260093688965,
                0.0,
                7.999300003051758,
                0.37929201126098635,
                0.0,
                1.0
            ],
            "children": [
                8,
                9,
                10
            ]
        },
        {
            "name": "bl",
            "matrix": [
                0.6510019898414612,
                0.5820710062980652,
                0.4872260093688965,
                0.0,
                -0.6665380001068115,
                0.7454710006713867,
                0.0,
                0.0,
                -0.3632130026817322,
                -0.3247550129890442,
                0.8732759952545166,
                0.0,
                3.2563700675964357,
                0.04048300161957741,
                0.10733599960803986,
                1.0
            ],
            "jointName": "bl"
        },
        {
            "name": "br",
            "matrix": [
                0.6510019898414612,
                0.5820710062980652,
                0.4872260093688965,
                0.0,
                -0.6665380001068115,
                0.7454710006713867,
                0.0,
                0.0,
                -0.3632130026817322,
                -0.3247550129890442,
                0.8732759952545166,
                0.0,
                0.39537400007247927,
                -2.939879894256592,
                -1.9055099487304688,
                1.0
            ],
            "jointName": "br"
        },
        {
            "name": "tail",
            "matrix": [
                0.6678289771080017,
                0.5638909935951233,
                0.48583000898361208,
                0.0,
                -0.6516929864883423,
                0.7583209872245789,
                0.015660999342799188,
                0.0,
                -0.3595840036869049,
                -0.32707101106643679,
                0.8739129900932312,
                0.0,
                -0.6082010269165039,
                1.295549988746643,
                -0.7351019978523254,
                1.0
            ],
            "jointName": "tail"
        },
        {
            "name": "head",
            "matrix": [
                0.021174000576138498,
                -0.002937000012025237,
                0.999770998954773,
                0.0,
                -0.16932299733161927,
                0.9855390191078186,
                0.00648100022226572,
                0.0,
                -0.9853330254554749,
                -0.1694210022687912,
                0.020370999351143838,
                0.0,
                -2.5693399906158449,
                5.6053900718688969,
                0.0,
                1.0
            ],
            "jointName": "head"
        },
        {
            "name": "fl",
            "matrix": [
                0.0,
                0.0,
                1.0,
                0.0,
                -0.16939100623130799,
                0.9855489730834961,
                0.0,
                0.0,
                -0.9855489730834961,
                -0.16939100623130799,
                0.0,
                0.0,
                -0.2971020042896271,
                -2.8239200115203859,
                3.6239099502563478,
                1.0
            ],
            "jointName": "fl"
        },
        {
            "name": "fr",
            "matrix": [
                0.0,
                0.0,
                1.0,
                0.0,
                -0.16939100623130799,
                0.9855489730834961,
                0.0,
                0.0,
                -0.9855489730834961,
                -0.16939100623130799,
                0.0,
                0.0,
                -0.9431440234184265,
                -2.6334500312805177,
                -3.788800001144409,
                1.0
            ],
            "jointName": "fr"
        }
    ],
    "samplers": [
        {}
    ],
    "scenes": [
        {
            "nodes": [
                0
            ]
        }
    ],
    "skins": [
        {
            "name": "skin",
            "joints": [
                6,
                11,
                12,
                13,
                8,
                9,
                10
            ],
            "bindShapeMatrix": [
                1.0,
                0.0,
                0.0,
                0.0,
                0.0,
                1.0,
                0.0,
                0.0,
                0.0,
                0.0,
                1.0,
                0.0,
                0.0,
                0.0,
                0.0,
                1.0
            ],
            "inverseBindMatrices": 6
        }
    ],
    "textures": [
        {
            "source": 0,
            "sampler": 0
        }
    ],
    "scene": 0
}